<svg width="30" height="30" viewBox="0 0 30 30" fill="none" xmlns="http://www.w3.org/2000/svg">
<rect x="14.9343" y="0.0317383" width="20.8214" height="20.8342" rx="10.4107" transform="rotate(45 14.9343 0.0317383)" fill="#1B1B1B"/>
<path fill-rule="evenodd" clip-rule="evenodd" d="M10.3987 9.81378C10.3988 9.54862 10.5041 9.29432 10.6916 9.10682C10.8791 8.91932 11.1334 8.81397 11.3986 8.81393H19.8839C20.149 8.81397 20.4033 8.91932 20.5908 9.10682C20.7783 9.29432 20.8837 9.54862 20.8837 9.81378L20.8837 18.2991C20.8792 18.5612 20.7718 18.8111 20.5848 18.9949C20.3978 19.1787 20.1461 19.2817 19.8839 19.2817C19.6217 19.2817 19.37 19.1787 19.1829 18.9949C18.9959 18.8111 18.8886 18.5612 18.884 18.2991L18.884 12.2278L10.6915 20.4204C10.504 20.6079 10.2496 20.7133 9.98438 20.7133C9.71917 20.7133 9.46481 20.6079 9.27728 20.4204C9.08974 20.2328 8.98438 19.9785 8.98438 19.7133C8.98438 19.4481 9.08974 19.1937 9.27728 19.0062L17.4698 10.8136L11.3986 10.8136C11.1334 10.8136 10.8791 10.7082 10.6916 10.5207C10.5041 10.3332 10.3988 10.0789 10.3987 9.81378Z" fill="white"/>
</svg>
