<svg width="48" height="48" viewBox="0 0 48 48" fill="none" xmlns="http://www.w3.org/2000/svg">
<path d="M48 24C48 30.3652 45.4714 36.4697 40.9706 40.9706C36.4697 45.4714 30.3652 48 24 48C17.6348 48 11.5303 45.4714 7.02944 40.9706C2.52856 36.4697 0 30.3652 0 24C0 17.6348 2.52856 11.5303 7.02944 7.02944C11.5303 2.52856 17.6348 0 24 0C30.3652 0 36.4697 2.52856 40.9706 7.02944C45.4714 11.5303 48 17.6348 48 24ZM17.9225 14.2302C18.2691 13.8835 18.4639 13.4133 18.4639 12.9231C18.4639 12.4328 18.2691 11.9627 17.9225 11.616C17.5758 11.2693 17.1056 11.0746 16.6154 11.0746C16.1251 11.0746 15.655 11.2693 15.3083 11.616L7.92369 19.0006C7.75177 19.1721 7.61536 19.3758 7.52229 19.6001C7.42922 19.8244 7.38131 20.0649 7.38131 20.3077C7.38131 20.5505 7.42922 20.791 7.52229 21.0153C7.61536 21.2395 7.75177 21.4433 7.92369 21.6148L15.3083 28.9994C15.48 29.171 15.6837 29.3072 15.908 29.4001C16.1323 29.493 16.3726 29.5408 16.6154 29.5408C16.8581 29.5408 17.0985 29.493 17.3228 29.4001C17.547 29.3072 17.7508 29.171 17.9225 28.9994C18.0941 28.8277 18.2303 28.624 18.3232 28.3997C18.4161 28.1754 18.4639 27.9351 18.4639 27.6923C18.4639 27.4496 18.4161 27.2092 18.3232 26.9849C18.2303 26.7607 18.0941 26.5569 17.9225 26.3852L13.6874 22.1538H23.0769C25.7699 22.1538 28.3526 23.2236 30.2568 25.1278C32.161 27.0321 33.2308 29.6147 33.2308 32.3077V33.2308C33.2308 33.7204 33.4253 34.19 33.7715 34.5362C34.1177 34.8824 34.5873 35.0769 35.0769 35.0769C35.5666 35.0769 36.0361 34.8824 36.3824 34.5362C36.7286 34.19 36.9231 33.7204 36.9231 33.2308V32.3077C36.9231 28.6355 35.4643 25.1136 32.8676 22.517C30.271 19.9203 26.7491 18.4615 23.0769 18.4615H13.6874L17.9225 14.2302Z" fill="#1B1B1B"/>
</svg>
