<svg width="25" height="24" viewBox="0 0 25 24" fill="none" xmlns="http://www.w3.org/2000/svg">
<path d="M16.5 18C17.0304 18 17.5391 18.2107 17.9142 18.5858C18.2893 18.9609 18.5 19.4696 18.5 20C18.5 20.5304 18.2893 21.0391 17.9142 21.4142C17.5391 21.7893 17.0304 22 16.5 22C15.9696 22 15.4609 21.7893 15.0858 21.4142C14.7107 21.0391 14.5 20.5304 14.5 20C14.5 19.4696 14.7107 18.9609 15.0858 18.5858C15.4609 18.2107 15.9696 18 16.5 18ZM16.5 19C16.2348 19 15.9804 19.1054 15.7929 19.2929C15.6054 19.4804 15.5 19.7348 15.5 20C15.5 20.2652 15.6054 20.5196 15.7929 20.7071C15.9804 20.8946 16.2348 21 16.5 21C16.7652 21 17.0196 20.8946 17.2071 20.7071C17.3946 20.5196 17.5 20.2652 17.5 20C17.5 19.7348 17.3946 19.4804 17.2071 19.2929C17.0196 19.1054 16.7652 19 16.5 19ZM7.5 18C8.03043 18 8.53914 18.2107 8.91421 18.5858C9.28929 18.9609 9.5 19.4696 9.5 20C9.5 20.5304 9.28929 21.0391 8.91421 21.4142C8.53914 21.7893 8.03043 22 7.5 22C6.96957 22 6.46086 21.7893 6.08579 21.4142C5.71071 21.0391 5.5 20.5304 5.5 20C5.5 19.4696 5.71071 18.9609 6.08579 18.5858C6.46086 18.2107 6.96957 18 7.5 18ZM7.5 19C7.23478 19 6.98043 19.1054 6.79289 19.2929C6.60536 19.4804 6.5 19.7348 6.5 20C6.5 20.2652 6.60536 20.5196 6.79289 20.7071C6.98043 20.8946 7.23478 21 7.5 21C7.76522 21 8.01957 20.8946 8.20711 20.7071C8.39464 20.5196 8.5 20.2652 8.5 20C8.5 19.7348 8.39464 19.4804 8.20711 19.2929C8.01957 19.1054 7.76522 19 7.5 19ZM18.5 6H4.77L7.32 12H15.5C15.83 12 16.12 11.84 16.3 11.6L19.3 7.6C19.43 7.43 19.5 7.22 19.5 7C19.5 6.73478 19.3946 6.48043 19.2071 6.29289C19.0196 6.10536 18.7652 6 18.5 6ZM15.5 13H7.37L6.6 14.56L6.5 15C6.5 15.2652 6.60536 15.5196 6.79289 15.7071C6.98043 15.8946 7.23478 16 7.5 16H18.5V17H7.5C6.96957 17 6.46086 16.7893 6.08579 16.4142C5.71071 16.0391 5.5 15.5304 5.5 15C5.4997 14.6607 5.58573 14.3269 5.75 14.03L6.47 12.56L2.84 4H1.5V3H3.5L4.35 5H18.5C19.0304 5 19.5391 5.21071 19.9142 5.58579C20.2893 5.96086 20.5 6.46957 20.5 7C20.5 7.5 20.33 7.92 20.05 8.26L17.14 12.15C16.78 12.66 16.18 13 15.5 13Z" fill="black"/>
</svg>
