<svg width="12" height="14" viewBox="0 0 12 14" fill="none" xmlns="http://www.w3.org/2000/svg">
<path d="M6.85222 3.10997V2.24041C7.01216 2.25606 7.1713 2.20394 7.29086 2.09647C7.41042 1.98911 7.47934 1.8363 7.48084 1.67568V0.566452C7.48084 0.504893 7.45644 0.44598 7.41295 0.402484C7.36945 0.358988 7.31042 0.334595 7.24898 0.334595H4.72789C4.59982 0.334595 4.49604 0.438383 4.49604 0.566452V1.67591C4.49742 1.83654 4.56634 1.98936 4.68589 2.0967C4.80545 2.20417 4.9647 2.2563 5.12465 2.24065V3.11377C3.80911 3.33355 2.62427 4.04028 1.80576 5.09347C0.987303 6.14667 0.59494 7.46922 0.706669 8.79825C0.818398 10.1274 1.42606 11.3659 2.40895 12.2677C3.39183 13.1694 4.67803 13.6684 6.0118 13.6654C7.34563 13.6624 8.62953 13.1578 9.60847 12.2517C10.5874 11.3456 11.1896 10.1045 11.2955 8.77489C11.4013 7.4453 11.0031 6.12446 10.1799 5.07483C9.35673 4.02531 8.16889 3.32389 6.85247 3.10986L6.85222 3.10997ZM4.95974 1.6759V0.798297H7.017V1.6759C7.017 1.73159 6.97178 1.77682 6.91609 1.77682H5.06099C5.03418 1.77693 5.00841 1.76623 4.98942 1.74736C4.97044 1.72837 4.95986 1.70271 4.95974 1.6759ZM5.58835 2.24065H6.3884V3.05633V3.05622C6.12213 3.03528 5.85461 3.03585 5.58847 3.05806L5.58835 2.24065ZM5.99936 13.2024C4.7174 13.1962 3.49 12.6825 2.58591 11.7737C1.68162 10.8651 1.17393 9.63524 1.17393 8.35322C1.17393 7.07126 1.68159 5.84144 2.58591 4.9327C3.49009 4.0239 4.71749 3.51026 5.99936 3.50405C12.4342 3.77111 12.4289 12.9376 5.99936 13.2021V13.2024Z" fill="#1B1B1B"/>
<path d="M5.99946 3.99957C0.263638 4.22924 0.209731 12.393 5.93295 12.7052L5.93283 12.7053C5.9761 12.7193 6.0227 12.7193 6.06596 12.7053C11.7935 12.3906 11.7308 4.22709 5.99946 3.99939V3.99957ZM6.23131 12.2357V11.7247V11.7248C6.23131 11.5967 6.12753 11.4929 5.99946 11.4929C5.87139 11.4929 5.76749 11.5967 5.76749 11.7248V12.2358C4.8183 12.1779 3.92299 11.7747 3.25055 11.1023C2.578 10.4297 2.17479 9.53452 2.11694 8.58525H2.59078C2.71885 8.58525 2.82264 8.48146 2.82264 8.35339C2.82264 8.22532 2.71885 8.12142 2.59078 8.12142H2.11694C2.17493 7.17223 2.57811 6.27692 3.25055 5.60449C3.92299 4.93205 4.81833 4.52872 5.76749 4.47087V4.9912C5.76749 5.11926 5.87139 5.22305 5.99946 5.22305C6.12753 5.22305 6.23131 5.11926 6.23131 4.9912V4.47087C7.18062 4.52875 8.07581 4.93205 8.74825 5.60449C9.4208 6.27692 9.82401 7.17226 9.88186 8.12142H9.40814C9.28007 8.12142 9.17617 8.22532 9.17617 8.35339C9.17617 8.48146 9.28007 8.58525 9.40814 8.58525H9.8821C9.82422 9.53455 9.42104 10.4299 8.74848 11.1023C8.07593 11.7749 7.18059 12.1779 6.23131 12.2358V12.2357Z" fill="#1B1B1B"/>
<path d="M6.80481 8.87614C7.38349 8.05974 6.37586 7.05683 5.56291 7.63436L4.20237 6.27325C4.11135 6.18534 3.96671 6.18661 3.87731 6.27601C3.78779 6.36553 3.78652 6.51017 3.87443 6.60107L5.26903 7.99623C4.92901 8.72346 5.71583 9.50981 6.44442 9.17161L6.88995 9.61715V9.61726C6.93322 9.66191 6.99259 9.68745 7.05473 9.68802C7.11698 9.68848 7.1767 9.66409 7.22077 9.62014C7.26472 9.57607 7.28923 9.51635 7.28865 9.4541C7.28808 9.39196 7.26253 9.33259 7.21789 9.28932L6.80481 8.87614ZM6.13226 8.78202C6.01984 8.79548 5.90661 8.76372 5.81754 8.69376C5.72848 8.6238 5.67095 8.52128 5.65749 8.40886C5.64391 8.29644 5.67567 8.18321 5.74563 8.09414C5.81559 8.00508 5.91811 7.94755 6.03053 7.93397C6.14306 7.92051 6.25617 7.95227 6.34524 8.02223C6.4343 8.09219 6.49195 8.19471 6.50541 8.30713C6.5183 8.41955 6.48643 8.53243 6.41659 8.62137C6.34663 8.7102 6.24456 8.76798 6.13226 8.78202Z" fill="#1B1B1B"/>
</svg>
