<svg width="6" height="11" viewBox="0 0 6 11" fill="none" xmlns="http://www.w3.org/2000/svg">
<path d="M5.99662 4.8513L5.8527 5.96985C5.82836 6.1567 5.66487 6.29726 5.47096 6.29726H3.59919V10.9739C3.40179 10.9912 3.20179 11 2.99961 11C2.54743 11 2.10612 10.9562 1.67959 10.8729V6.29726H0.240005C0.107829 6.29726 0 6.19247 0 6.06412V4.66445C0 4.5361 0.107829 4.43131 0.240005 4.43131H1.67959V2.33222C1.67959 1.04407 2.75396 0 4.07963 0H5.75922C5.8914 0 5.99923 0.104785 5.99923 0.233137V1.63281C5.99923 1.76116 5.8914 1.86595 5.75922 1.86595H4.5592C4.0292 1.86595 3.59962 2.28341 3.59962 2.79892V4.43173H5.61531C5.84662 4.43173 6.02532 4.62868 5.99705 4.85172L5.99662 4.8513Z" fill="#1B1B1B"/>
</svg>
