<svg width="10" height="11" viewBox="0 0 10 11" fill="none" xmlns="http://www.w3.org/2000/svg">
<path d="M7.58625 0.5H2.41377C1.08094 0.5 0 1.58094 0 2.91376V8.08624C0 9.41906 1.08094 10.5 2.41377 10.5H7.58625C8.91908 10.5 10 9.41906 10 8.08624V2.91376C10 1.58094 8.91908 0.5 7.58625 0.5ZM9.13786 7.91352C9.13786 8.8654 8.36542 9.63784 7.41354 9.63784H2.58601C1.63413 9.63784 0.861686 8.8654 0.861686 7.91352V3.086C0.861686 2.13412 1.63413 1.36168 2.58601 1.36168H7.41354C8.36542 1.36168 9.13786 2.13412 9.13786 3.086V7.91352Z" fill="#1B1B1B"/>
<path d="M4.72883 3C3.30149 3 2.14282 4.15866 2.14282 5.586C2.14282 7.01334 3.30149 8.172 4.72883 8.172C6.15617 8.172 7.31483 7.01334 7.31483 5.586C7.31483 4.15866 6.15617 3 4.72883 3ZM4.72883 7.31032C3.77887 7.31032 3.0045 6.53596 3.0045 5.586C3.0045 4.63604 3.77887 3.86168 4.72883 3.86168C5.67879 3.86168 6.45315 4.63604 6.45315 5.586C6.45315 6.53596 5.67879 7.31032 4.72883 7.31032Z" fill="#1B1B1B"/>
</svg>
