<svg width="224" height="38" viewBox="0 0 224 38" fill="none" xmlns="http://www.w3.org/2000/svg">
<path d="M18.8947 33.1228C19.2115 33.199 19.8873 33.0804 20.2633 33.1228C20.3477 33.1313 20.4111 33.1101 20.4702 33.1736L20.504 35.1174L22.4385 35.1385L22.4174 37.781V37.8488L4.99832 37.8572V35.1004H6.72586L6.73854 33.1355L8.29713 33.1228C9.66988 32.4495 9.80082 31.035 9.99089 29.6799C10.2781 27.6515 10.4513 25.623 10.2148 23.5819C9.80926 20.1136 8.99406 17.2933 10.4977 13.9139C10.5569 13.7827 10.8821 13.1983 10.8863 13.1474C10.899 13.0416 10.8188 12.8298 10.8103 12.7028C10.7554 11.9448 10.7301 11.2799 10.4724 10.5473C10.4597 10.505 10.4555 10.4584 10.4006 10.4541C10.3753 10.5939 10.3077 10.7463 10.2485 10.8776C9.97399 11.4705 9.57695 12.0972 9.34464 12.6901C8.91381 13.7827 8.60969 14.8075 7.99724 15.8407C7.60442 16.5014 7.04688 17.2679 6.32038 17.5685C6.29926 17.5939 6.48511 18.136 6.52734 18.1995C6.62449 18.3435 6.81879 18.2969 6.93283 18.5722C7.16092 19.1184 6.48511 19.652 6.0416 19.2794C5.80085 19.0803 5.85575 18.8008 5.78817 18.5256C5.76283 18.407 5.615 17.9412 5.55586 17.865C5.49673 17.7887 5.21796 17.7379 5.05745 17.5473C4.94341 17.4076 4.57171 16.6665 4.57593 16.5098C4.57593 16.4463 4.67308 16.2134 4.64774 16.188C4.26759 16.1414 3.86633 16.116 3.50308 15.9932C3.44395 15.828 3.20319 15.6629 3.46929 15.5443C3.596 15.4893 4.03106 15.4088 4.19156 15.3749C4.24225 15.3665 4.29716 15.3622 4.34785 15.3665C4.1451 14.6889 3.85788 14.0325 3.6129 13.3634C2.7808 11.0809 1.99095 8.73482 1.256 6.41841C0.918093 5.35125 0.47459 4.12317 0.238055 3.04331C0.16625 2.71724 0.162026 2.41657 0.554843 2.68759C2.29084 6.46076 3.83676 10.3271 5.34045 14.1977C5.42492 14.4179 5.51362 14.6465 5.57276 14.8795C5.67835 14.8329 5.7755 14.7694 5.8811 14.7228C5.99514 14.672 6.38796 14.4814 6.46821 14.6042C6.51467 14.6974 6.52312 14.799 6.45976 14.8922L5.83464 15.6036C5.82196 15.6841 5.85153 15.6459 5.88532 15.6629C5.96557 15.6968 6.20633 15.845 6.22323 15.8492C6.58225 15.8873 6.79345 14.9218 6.85258 14.655C6.99619 14.0283 7.04265 13.3761 7.27919 12.7748C7.45236 12.3259 7.75226 11.9448 7.93811 11.5001C8.41962 10.3567 8.74908 8.11655 9.56428 7.28654C10.1556 6.6852 10.8441 6.83342 11.4523 6.31254C11.9296 5.90177 12.069 5.4063 12.031 4.78803C11.1482 4.86426 10.9539 3.66159 11.5072 3.17035C11.3129 2.97132 11.4354 2.66218 11.3974 2.4081C10.5864 2.21753 10.4471 1.16308 10.9201 0.561744C11.5453 -0.23439 12.9349 -0.230155 13.1883 0.870881C13.4122 0.88782 13.598 0.828534 13.8304 0.841238C14.3245 0.875116 14.8525 1.09109 15.2284 1.41293C15.3847 1.54421 15.8029 1.98462 15.8493 2.16672C15.9043 2.37422 15.7987 2.42504 15.7818 2.56478C15.7395 2.9078 15.8325 3.17035 15.71 3.53878C15.6888 3.6023 15.6128 3.67005 15.6086 3.72087C15.6086 3.81404 15.786 4.14435 15.8071 4.28833C15.8747 4.71604 15.5579 4.58476 15.4988 4.66946C15.4692 4.7118 15.4692 4.83038 15.4354 4.90237C15.4016 4.97436 15.3214 5.04635 15.3045 5.10564C15.2496 5.30891 15.3594 5.44018 15.1989 5.67309C14.9412 6.04575 14.4893 5.93565 14.1049 5.89754C14.1302 6.13045 13.9317 6.43112 14.2147 6.54969C14.5188 6.67673 14.9201 6.51581 15.2369 6.49464C16.1661 6.43112 17.0236 6.72755 17.9866 6.68097C18.4217 6.65979 19.1228 6.61321 19.541 6.52852C19.7226 6.4904 19.8662 6.40147 20.0056 6.2829C20.3562 5.978 20.8208 5.44018 21.1418 5.08023C21.5938 4.57629 22.0246 4.05118 22.4596 3.53454C22.8356 3.08566 23.6761 1.82794 24.3266 1.88722C24.4448 1.89993 24.7363 2.01427 24.8546 2.06932C25.3023 2.29799 25.7247 2.75111 25.4797 3.28046C25.3445 3.56842 25.0826 3.61077 24.8461 3.76322L24.8588 4.74568L25.2685 5.04212C26.0499 5.02094 26.8482 5.08446 27.6254 5.00824L29.0742 7.99798C29.2305 8.01915 29.2093 8.10384 29.1798 8.2563C28.9939 9.29381 27.5832 9.67917 26.713 9.25993C26.3329 9.07784 25.8725 8.55273 25.8472 8.11655C25.8387 7.95563 25.9654 8.06573 26.0288 7.92598L27.2579 5.41901H25.2516C25.0869 6.01611 24.3519 5.98223 24.1492 5.41901H22.9665C22.8905 5.43171 22.8398 5.52911 22.806 5.59687C22.7638 5.67309 22.6159 5.99917 22.6286 6.05422L23.617 7.97257C23.9676 7.98527 23.8789 8.19277 23.7817 8.43839C23.1946 9.92056 20.6518 9.73423 20.5336 8.06573C19.3002 8.54426 17.9908 8.82799 16.673 8.95503C16.6308 8.95503 16.597 8.98891 16.5885 9.03126C16.4787 9.57331 16.4407 10.1281 16.3224 10.6701C16.1197 11.5848 15.5326 12.7028 15.7269 13.6133C15.824 14.0791 16.0394 14.5322 16.1746 14.9896C17.0405 17.92 16.956 20.5286 16.597 23.5311C16.466 24.6448 16.2379 25.767 16.1915 26.885C16.1577 27.6472 16.3182 28.4688 16.4618 29.2183C16.6561 30.2177 16.9138 31.7211 17.7332 32.3775L18.8905 33.1228H18.8947ZM12.8166 0.951342C12.4111 -0.200512 10.6667 0.527866 11.0806 1.63314C11.1482 1.811 11.3763 2.1032 11.5875 2.06508C11.824 1.55268 12.2844 1.13767 12.8166 0.951342ZM15.4185 2.21753C15.4439 2.19636 15.258 1.97192 15.2327 1.93804C14.4639 1.06145 12.9307 0.934403 12.1535 1.86181C11.9254 2.13284 11.748 2.52244 11.7818 2.88663L15.4227 2.21753H15.4185ZM16.504 8.72212C16.673 8.6586 16.8504 8.61625 17.0278 8.59084C17.805 8.48921 18.7131 8.29864 19.4354 8.08691C19.786 7.98527 20.4871 7.76506 20.7786 7.57027C21.2305 7.26536 21.6571 6.03728 21.9232 5.51641C22.1302 5.10987 22.2865 5.00824 22.768 5.04212L23.5156 3.69123C23.731 3.6023 23.9591 3.54725 24.1703 3.45408C24.2928 3.40327 24.7954 3.19153 24.7236 3.03908C24.542 2.81463 24.1956 3.13224 23.9971 3.02214C23.9211 2.97979 24.0563 2.84428 24.09 2.81463C24.5293 2.4208 25.3572 2.87392 24.8546 3.41173C25.5177 3.25505 25.2474 2.69183 24.8081 2.43774C24.2252 2.09896 23.8873 2.39116 23.4987 2.81463C22.6455 3.75052 21.8894 4.81344 21.0109 5.75779C20.7448 6.04152 20.2252 6.65979 19.8958 6.79954C19.6339 6.90964 19.4481 6.88 19.1904 6.90964C18.4808 6.98587 17.7543 7.07056 17.0362 7.01975C16.5674 6.9901 16.1154 6.81224 15.6424 6.83342L16.2337 8.67554C16.2548 8.74753 16.3351 8.78564 16.4069 8.76023L16.5083 8.72212H16.504ZM15.4185 2.59019L11.9634 3.24234C11.9634 3.24234 12.3056 3.3228 12.3562 3.33127C13.0574 3.43291 13.9571 3.55995 14.654 3.59806C14.8736 3.61077 15.2369 3.62771 15.3509 3.40327C15.3636 3.38209 15.4185 3.22117 15.4185 3.20847V2.59443V2.59019ZM15.3045 3.8945C15.144 3.93684 15.013 3.97919 14.8399 3.97072C14.1345 3.93684 13.2559 3.80133 12.5421 3.70393C12.2337 3.66159 11.9339 3.58959 11.6297 3.55995C11.4946 3.97919 11.6382 4.61864 12.1957 4.36879C12.3562 4.2968 12.5801 3.86485 12.7659 4.0046C12.9856 4.16976 12.6012 4.44502 12.5083 4.60594C12.352 4.86849 12.4238 5.21151 12.3731 5.51217C12.2633 6.13468 11.7691 6.61745 11.2285 6.89694L11.1905 6.9901C11.465 7.13832 11.7058 7.33735 11.993 7.46863C12.5885 7.74389 13.6149 7.94292 14.2443 7.72695C14.5653 7.61685 14.6498 7.25689 14.7174 6.95623C14.447 6.97317 14.2189 6.9647 13.9866 6.81224C13.6023 6.56663 13.7923 6.12621 13.7839 5.74932C13.653 5.5884 13.1545 5.40207 13.2348 5.15222C13.2475 5.10564 13.2813 5.09293 13.3235 5.0887C13.5474 5.06329 13.9191 5.48253 14.1091 5.52911C14.1978 5.55029 14.5442 5.61381 14.6202 5.61381C15.0806 5.61381 14.8736 5.1988 14.9412 4.97012C14.9623 4.89813 15.0933 4.84308 15.1144 4.73298C15.1313 4.64828 15.0806 4.589 15.0806 4.51701C15.0806 4.34762 15.2791 4.27986 15.4185 4.35185L15.3087 3.90297L15.3045 3.8945ZM24.5167 4.82191V3.66582L23.7057 3.97072C23.6043 4.36455 23.3382 4.69063 23.1397 5.04212H24.1999C24.221 5.04212 24.4111 4.7838 24.5167 4.81767V4.82191ZM5.27709 14.9896C4.05218 11.7627 2.76391 8.56543 1.4334 5.38513L0.896974 4.19093C2.04586 7.92598 3.3299 11.6229 4.68575 15.286C4.85471 15.1378 5.0659 15.0573 5.28131 14.9896H5.27709ZM24.656 5.05482C24.373 5.10987 24.4237 5.64769 24.825 5.52488C25.0911 5.44442 24.9517 4.99553 24.656 5.05482ZM22.5103 5.41901C22.4723 5.38513 22.3076 5.5037 22.2949 5.55452L21.843 6.49887C22.164 6.19397 22.3372 5.81708 22.5103 5.41901ZM26.3751 8.02762H28.5842C28.5842 8.02762 28.7151 7.98104 28.7151 7.97257L27.6001 5.60957L26.3751 8.03185V8.02762ZM23.2157 8.02762L22.4343 6.35066C21.9317 6.85883 21.4586 7.42628 21.0616 8.02762H23.2157ZM17.201 33.1228H18.3161L17.7078 32.7417C16.673 31.9328 15.4439 30.9376 14.8905 29.7223C14.409 28.6636 14.1809 27.8209 13.5389 26.7961C12.4745 25.0937 10.9117 23.0949 10.7765 21.0029C10.7723 20.9097 10.7512 20.7869 10.8314 20.7234C10.8779 20.7658 10.9075 20.8251 10.9328 20.8843C11.258 21.6889 11.4312 22.5317 11.8114 23.3574C12.6054 25.0725 13.9233 26.4615 14.6582 28.2105C15.1102 29.2861 15.2496 29.9891 16.069 30.8911C16.2844 31.124 16.5252 31.3442 16.7575 31.5602C15.993 29.6079 16.0352 27.4482 15.3467 25.4706C14.7005 23.6073 13.4587 22.0785 12.6646 20.3042C12.2633 19.4149 11.8916 18.3054 11.7184 17.3441C11.6044 16.7131 11.5157 15.989 11.672 15.3622H11.7818C11.8494 16.0482 11.9085 16.7385 12.0521 17.4161C12.6857 20.3889 14.447 22.4639 15.5959 25.1826L15.938 26.199C15.9972 25.1064 16.2253 24.0265 16.3435 22.9382C16.5758 20.8208 16.6688 18.6018 16.2253 16.5098C16.0563 15.7052 15.786 14.926 15.5664 14.1341L15.4945 14.456C15.3889 15.3114 15.334 16.1838 15.1609 17.0222C14.9117 17.2297 14.9623 16.73 14.9708 16.5734C15.0046 15.972 15.1313 15.3156 15.1947 14.7101C15.2791 13.8885 15.2918 13.0289 15.5114 12.2327C15.8282 11.0936 16.3309 10.1281 16.0014 8.91268C15.8113 8.20548 15.4608 7.52368 15.3256 6.79954L15.051 6.84189C14.6498 8.67977 13.4756 9.98408 11.9254 10.9496C11.6466 11.1232 11.3467 11.2672 11.0806 11.4408C11.0468 11.5425 11.1398 11.894 11.1482 12.0295C11.1651 12.2835 11.1102 12.5461 11.1862 12.7917C11.5072 12.6266 11.8409 12.4529 12.1155 12.2158C12.2168 12.1311 12.5336 11.7373 12.6392 11.7669C13.0532 11.8728 12.4238 12.4191 12.2844 12.5334C11.993 12.7748 11.4861 12.9653 11.2496 13.2067C10.9032 13.5624 10.4766 14.7905 10.3246 15.2987C9.95287 16.5437 9.93176 17.6702 9.99934 18.9575C10.0965 20.7488 10.3668 22.7984 10.6794 24.5686C11.106 26.9782 12.145 28.9219 13.9528 30.5565C14.7089 31.2426 15.4565 31.5347 16.2886 32.0514C16.6688 32.2885 17.1503 32.6485 17.2052 33.1228H17.201ZM14.2274 8.09961C13.3024 8.22665 12.4492 8.12078 11.6255 7.6719C11.4312 7.56603 10.8399 7.10868 10.7132 7.09597C10.4809 7.06633 10.1303 7.26536 9.95287 7.40934C9.125 8.09538 8.70684 10.5346 8.27179 11.6102C8.08594 12.076 7.75226 12.4614 7.5833 12.9315C7.35099 13.5709 7.3172 14.2612 7.14825 14.9176C7.04265 15.3368 6.81034 16.1075 6.32038 16.2134C6.03316 16.2727 5.9529 16.0144 5.73326 15.9974C5.54319 15.9805 5.11236 16.1118 4.97297 16.243C4.81247 16.3955 4.79557 16.5945 5.04056 16.6496C5.38691 16.73 5.30666 16.4802 5.49673 16.3955C6.00359 16.1711 6.09229 17.289 6.21056 17.2975C7.04688 16.7936 7.60865 15.8534 8.03948 14.998C8.44074 14.1977 8.67728 13.4269 9.00674 12.6181C9.47558 11.462 10.1852 10.5431 10.4809 9.2557C10.5146 9.11595 10.5189 8.55696 10.7596 8.67554C10.9032 8.74753 10.8821 8.94656 10.8652 9.08207C10.8399 9.32345 10.7258 9.57754 10.692 9.80198C10.6329 10.2382 10.8906 10.6659 10.9962 11.0766C11.3636 10.848 11.748 10.6489 12.1028 10.3991C12.7322 9.96714 13.3277 9.42085 13.7754 8.80258C13.936 8.58237 14.088 8.34523 14.2063 8.09961H14.2274ZM23.4396 8.32405L20.9517 8.3791C21.3361 9.10748 22.278 9.28534 22.9665 8.87457C23.165 8.756 23.3762 8.55696 23.4396 8.32405ZM28.7869 8.32405H26.2991C26.2864 8.42145 26.3582 8.49768 26.4132 8.56543C26.8947 9.18371 27.8704 9.25146 28.4744 8.7687C28.6053 8.66283 28.7616 8.49768 28.7912 8.32405H28.7869ZM5.87265 15.0997L4.75756 15.5655L4.01416 15.7688L4.90539 15.9339C5.00676 15.7984 5.28131 15.7688 5.37846 15.6841C5.41648 15.6459 5.45027 15.5443 5.50095 15.4893C5.62344 15.358 5.76705 15.2436 5.87265 15.0997ZM5.94446 17.4457C5.97402 17.4034 5.78395 16.8613 5.74171 16.7766C5.58543 16.4505 5.53052 16.7597 5.4038 16.8486C5.32778 16.9037 5.18417 16.9291 5.09124 16.9291C5.049 17.1916 5.39113 17.0688 5.44604 17.1493L5.4207 17.3314H5.27709C5.42915 17.6066 5.69947 17.5262 5.94446 17.4457ZM6.28236 18.5256C6.32038 18.3985 6.10496 17.7294 6.00359 17.721C5.97402 17.721 5.91489 17.7549 5.87265 17.7464C5.85998 17.8099 5.8811 17.865 5.89799 17.9242C5.94868 18.1148 6.1303 18.4028 6.15987 18.5552C6.18521 18.678 6.15565 19.093 6.40063 19.0465C6.79345 18.9745 6.67518 18.4621 6.27814 18.5298L6.28236 18.5256ZM16.8673 33.1228C16.8039 32.784 16.428 32.5087 16.1492 32.3351C15.541 31.954 14.9074 31.7253 14.3076 31.2764C12.5125 29.9298 11.182 27.8971 10.6456 25.712C10.6287 26.3811 10.616 27.0417 10.5527 27.7065C10.4935 28.3248 10.4133 28.9854 10.3246 29.5995C10.1556 30.7979 10.0036 32.1996 9.01096 33.0127C8.95183 33.0593 8.8589 33.0635 8.84201 33.1228H12.8884C12.7744 32.9957 12.597 32.9322 12.4618 32.8263C11.6593 32.1742 11.2834 30.764 11.4946 29.7731C11.5115 29.6884 11.5706 29.3962 11.6804 29.4047C11.7227 29.4047 11.7353 29.4936 11.7396 29.5317C11.7818 29.9086 11.6846 30.277 11.7396 30.6836C11.8367 31.3696 12.1788 32.2674 12.7786 32.657C12.9729 32.784 13.3193 32.8264 13.2221 33.127H16.8631L16.8673 33.1228ZM7.05955 35.0962H20.1703V33.5124C20.1703 33.5124 20.1196 33.4573 20.1154 33.4573H7.05955C7.05532 33.686 7.068 33.9189 7.05955 34.1476V35.0962ZM22.1006 35.4688H5.20529V37.5185H22.1048V35.4688H22.1006Z" fill="#1B1B1B"/>
<path d="M13.4289 13.6128C13.4838 13.6 13.5176 13.6551 13.5218 13.7059C13.5345 13.8203 13.4542 14.0913 13.4458 14.2268C13.374 15.5057 13.5514 16.9667 14.1469 18.1058C14.6327 19.0417 15.7731 20.2952 15.8238 21.3454C15.8323 21.536 15.6717 21.7985 15.5746 21.5529C15.5197 21.4132 15.4986 21.1506 15.4437 20.977C15.1733 20.1046 14.4384 19.3212 13.9991 18.5166C13.3486 17.3224 13.0614 15.8868 13.1501 14.5232C13.1586 14.375 13.2853 13.6424 13.4289 13.6128Z" fill="#1B1B1B"/>
<path d="M15.3254 8.64537C15.3549 8.65807 15.376 8.68348 15.3803 8.71736C15.4352 9.36104 15.1733 10.0301 14.865 10.5849C14.13 11.9061 12.7784 12.7531 11.7731 13.8541C11.6633 13.9769 11.2874 14.502 11.1818 14.5274C11.1607 14.5317 11.1395 14.5274 11.1226 14.519C11.0804 14.5063 11.0551 14.4639 11.0677 14.4216C11.11 14.2522 11.3296 13.9219 11.3887 13.8414C12.5968 12.1814 14.3074 11.6309 15.017 9.43727C15.0804 9.24247 15.1353 8.85287 15.2113 8.70466C15.2155 8.69195 15.224 8.68348 15.2324 8.67078C15.2535 8.64537 15.2916 8.6369 15.3211 8.64961L15.3254 8.64537Z" fill="#1B1B1B"/>
<path d="M15.3633 10.7924C15.3929 10.7882 15.4267 10.8051 15.4351 10.8347C15.4732 10.966 15.4309 11.1015 15.4056 11.2328C15.3338 11.6817 15.1141 12.3084 14.8227 12.6599C14.7467 12.7488 14.4425 13.058 14.413 12.8081C14.3918 12.6515 14.6495 12.3974 14.7424 12.2449C15.0001 11.813 15.1479 11.3217 15.2915 10.839C15.3 10.8178 15.3169 10.8009 15.3422 10.7966H15.3633V10.7924Z" fill="#1B1B1B"/>
<path d="M41.3231 7.17917H45.7203C48.3385 7.17917 48.407 11.1833 45.7203 11.1833H41.6902C31.1813 11.1833 30.9796 26.7346 41.9928 26.7346H45.7203C48.407 26.7346 48.3385 30.7387 45.7203 30.7387H41.6902C34.6063 30.7387 29.2006 25.5536 29.2006 18.9246C29.2006 12.2955 34.57 7.345 41.3191 7.17917H41.3231Z" fill="#1B1B1B"/>
<path d="M47.9068 18.9286C47.9068 12.1297 53.5142 6.67764 60.3601 6.67764C67.2061 6.67764 72.8498 12.1621 72.8498 18.9286C72.8498 25.6952 67.2101 31.1796 60.3601 31.1796C55.1884 31.1796 50.7912 28.1178 48.879 23.6729C48.2416 22.1926 47.9068 20.6111 47.9068 18.9286ZM60.3601 27.1391C64.9591 27.1391 68.7189 23.6041 68.7189 18.9286C68.7189 14.2531 64.9268 10.7182 60.3601 10.7182C55.7935 10.7182 52.0014 14.3542 52.0014 18.9286C52.0014 23.503 55.5595 27.1391 60.3601 27.1391Z" fill="#1B1B1B"/>
<path d="M76.9445 7.17917C77.9853 7.17917 78.9575 7.81821 78.9575 9.16505V20.4049C78.9575 24.1744 82.447 26.5971 86.4085 26.5971C88.9258 26.5971 89.2607 30.7023 86.1382 30.7023C79.8934 30.7023 74.8588 26.1603 74.8588 20.6071V9.16505C74.8588 7.85057 75.8996 7.17917 76.9404 7.17917H76.9445Z" fill="#1B1B1B"/>
<path d="M90.1724 7.17917C91.2132 7.17917 92.1854 7.81821 92.1854 9.16505V20.4049C92.1854 24.1744 95.6749 26.5971 99.6364 26.5971C102.154 26.5971 102.489 30.7023 99.3662 30.7023C93.1213 30.7023 88.0867 26.1603 88.0867 20.6071V9.16505C88.0867 7.85057 89.1275 7.17917 90.1683 7.17917H90.1724Z" fill="#1B1B1B"/>
<path d="M105.312 7.17917H117.431C120.118 7.17917 120.118 11.2844 117.431 11.2844H107.426V17.0398H115.382C118.068 17.0398 118.068 21.1127 115.382 21.1127H107.426V26.6335H117.431C120.118 26.6335 120.118 30.7387 117.431 30.7387H105.312C104.203 30.7387 103.332 29.8287 103.332 28.7528V9.16505C103.332 8.05279 104.203 7.17917 105.312 7.17917Z" fill="#1B1B1B"/>
<path d="M131.897 7.17917H136.295C138.913 7.17917 138.981 11.1833 136.295 11.1833H132.264C121.756 11.1833 121.554 26.7346 132.567 26.7346H136.295C138.981 26.7346 138.913 30.7387 136.295 30.7387H132.264C125.181 30.7387 119.775 25.5536 119.775 18.9246C119.775 12.2955 125.144 7.345 131.893 7.17917H131.897Z" fill="#1B1B1B"/>
<path d="M142.071 7.17918H156.171C156.84 7.17918 157.345 7.38141 157.679 7.81822C158.014 8.25504 158.184 8.59074 158.184 8.86172C158.184 9.13271 158.216 9.26618 158.216 9.26618C158.216 10.2773 157.546 11.2844 156.167 11.2844H151.164V28.6841C151.164 30.0309 150.156 30.7387 149.115 30.7387C148.074 30.7387 147.066 30.0309 147.066 28.6841V11.2844H142.063C140.72 11.2844 140.014 10.2733 140.014 9.22978C140.014 8.18628 140.684 7.17514 142.063 7.17514L142.071 7.17918Z" fill="#1B1B1B"/>
<path d="M161.944 7.21558C162.984 7.21558 163.993 7.88697 163.993 9.27021V28.6922C163.993 30.039 162.984 30.7468 161.944 30.7468C160.903 30.7468 159.894 30.039 159.894 28.6922V9.27021C159.894 7.89102 160.903 7.21558 161.944 7.21558Z" fill="#1B1B1B"/>
<path d="M178.124 7.17917H182.522C185.14 7.17917 185.208 11.1833 182.522 11.1833H178.491C167.983 11.1833 167.781 26.7346 178.794 26.7346H182.522C185.208 26.7346 185.14 30.7387 182.522 30.7387H178.491C171.408 30.7387 166.002 25.5536 166.002 18.9246C166.002 12.2955 171.371 7.345 178.12 7.17917H178.124Z" fill="#1B1B1B"/>
<path d="M184.704 18.9286C184.704 12.1297 190.311 6.67764 197.157 6.67764C204.003 6.67764 209.647 12.1621 209.647 18.9286C209.647 25.6952 204.007 31.1796 197.157 31.1796C191.986 31.1796 187.588 28.1178 185.676 23.6729C185.039 22.1926 184.704 20.6111 184.704 18.9286ZM197.161 27.1391C201.76 27.1391 205.52 23.6041 205.52 18.9286C205.52 14.2531 201.728 10.7182 197.161 10.7182C192.595 10.7182 188.803 14.3542 188.803 18.9286C188.803 23.503 192.361 27.1391 197.161 27.1391Z" fill="#1B1B1B"/>
<path d="M217.854 9.50133C218.766 9.50133 219.592 9.86502 220.162 10.456C220.459 10.7339 220.459 11.1986 220.162 11.4764C220.026 11.6128 219.844 11.6886 219.663 11.6886C219.472 11.6886 219.3 11.6128 219.154 11.4764C218.827 11.1582 218.368 10.946 217.849 10.946C216.862 10.946 216.061 11.7643 216.061 12.7746C216.061 13.7849 216.867 14.5779 217.849 14.5779C218.368 14.5779 218.822 14.386 219.154 14.0475C219.3 13.9111 219.472 13.8354 219.663 13.8354C219.844 13.8354 220.026 13.9111 220.162 14.0475C220.459 14.3354 220.459 14.8002 220.162 15.078C219.587 15.6741 218.761 16.0327 217.854 16.0327C216.066 16.0327 214.599 14.5779 214.599 12.7695C214.599 10.9612 216.061 9.49628 217.854 9.49628V9.50133Z" fill="#1B1B1B"/>
<path d="M217.723 18.8614C214.373 18.8614 211.647 16.1287 211.647 12.7695C211.647 9.41041 214.373 6.67764 217.723 6.67764C221.074 6.67764 223.799 9.41041 223.799 12.7695C223.799 16.1287 221.074 18.8614 217.723 18.8614ZM217.723 8.19304C215.204 8.19304 213.159 10.2439 213.159 12.7695C213.159 15.2952 215.209 17.346 217.723 17.346C220.237 17.346 222.288 15.2952 222.288 12.7695C222.288 10.2439 220.237 8.19304 217.723 8.19304Z" fill="#1B1B1B"/>
</svg>
