<svg width="20" height="19" viewBox="0 0 20 19" fill="none" xmlns="http://www.w3.org/2000/svg">
<path d="M8.25 0.162636C12.3921 0.162636 15.75 3.5205 15.75 7.66264C15.75 9.44858 15.1242 11.0875 14.082 12.3755L18.8369 17.1304L18.9053 17.2056C19.2259 17.5984 19.2031 18.1782 18.8369 18.5445C18.4707 18.9107 17.8908 18.9335 17.498 18.6128L17.4229 18.5445L12.6279 13.7495C11.3957 14.6374 9.88474 15.1626 8.25 15.1626C4.10786 15.1626 0.75 11.8048 0.75 7.66264C0.75 3.5205 4.10786 0.162636 8.25 0.162636ZM8.25 2.16264C5.21243 2.16264 2.75 4.62507 2.75 7.66264C2.75 10.7002 5.21243 13.1626 8.25 13.1626C11.2876 13.1626 13.75 10.7002 13.75 7.66264C13.75 4.62507 11.2876 2.16264 8.25 2.16264Z" fill="#1B1B1B"/>
</svg>
