<svg width="37" height="36" viewBox="0 0 37 36" fill="none" xmlns="http://www.w3.org/2000/svg">
<g clip-path="url(#clip0_537_833)">
<path d="M18.5605 3H17.9005C16.2447 3 14.9005 4.34425 14.9005 6V6.27C14.8994 7.3407 14.3277 8.32965 13.4005 8.865L12.7555 9.24C11.8273 9.7759 10.6837 9.7759 9.75547 9.24L9.53047 9.12C8.09708 8.29315 6.26486 8.78308 5.43547 10.215L5.10547 10.785C4.27862 12.2184 4.76855 14.0506 6.20047 14.88L6.42547 15.03C7.3481 15.5627 7.91904 16.5447 7.92547 17.61V18.375C7.92974 19.4511 7.35737 20.447 6.42547 20.985L6.20047 21.12C4.76855 21.9494 4.27862 23.7816 5.10547 25.215L5.43547 25.785C6.26486 27.2169 8.09708 27.7069 9.53047 26.88L9.75547 26.76C10.6837 26.2241 11.8273 26.2241 12.7555 26.76L13.4005 27.135C14.3277 27.6703 14.8994 28.6593 14.9005 29.73V30C14.9005 31.6557 16.2447 33 17.9005 33H18.5605C20.2162 33 21.5605 31.6557 21.5605 30V29.73C21.5616 28.6593 22.1332 27.6703 23.0605 27.135L23.7055 26.76C24.6337 26.2241 25.7773 26.2241 26.7055 26.76L26.9305 26.88C28.3639 27.7069 30.1961 27.2169 31.0255 25.785L31.3555 25.2C32.1823 23.7666 31.6924 21.9344 30.2605 21.105L30.0355 20.985C29.1036 20.447 28.5312 19.4511 28.5355 18.375V17.625C28.5312 16.5489 29.1036 15.553 30.0355 15.015L30.2605 14.88C31.6924 14.0506 32.1823 12.2184 31.3555 10.785L31.0255 10.215C30.1961 8.78308 28.3639 8.29315 26.9305 9.12L26.7055 9.24C25.7773 9.7759 24.6337 9.7759 23.7055 9.24L23.0605 8.865C22.1332 8.32965 21.5616 7.3407 21.5605 6.27V6C21.5605 4.34315 20.2173 3 18.5605 3" stroke="#1B1B1B" stroke-width="1.125" stroke-linecap="round" stroke-linejoin="round"/>
<path d="M18.2305 13.5C15.7469 13.5 13.7305 15.5164 13.7305 18C13.7305 20.4836 15.7469 22.5 18.2305 22.5C20.7141 22.5 22.7305 20.4836 22.7305 18C22.7305 15.5164 20.7141 13.5 18.2305 13.5" stroke="#1B1B1B" stroke-width="1.125" stroke-linecap="round" stroke-linejoin="round"/>
</g>
<defs>
<clipPath id="clip0_537_833">
<rect width="36" height="36" fill="white" transform="translate(0.230469)"/>
</clipPath>
</defs>
</svg>
