<svg width="8" height="11" viewBox="0 0 8 11" fill="none" xmlns="http://www.w3.org/2000/svg">
<path d="M5.6665 7.74188V3.43152C5.6665 3.43152 6.13633 4.24157 7.8345 4.29105C7.92508 4.29368 8 4.21661 8 4.12291V2.90476C8 2.81412 7.93016 2.74232 7.84254 2.73706C6.52532 2.66 5.89972 1.61481 5.83835 0.656319C5.83285 0.567432 5.7575 0.5 5.67158 0.5H4.32854C4.23922 0.5 4.16642 0.574876 4.16642 0.667704V7.51988C4.16642 8.26425 3.61659 8.91186 2.89788 8.94689C2.0763 8.98717 1.40838 8.25768 1.50996 7.39552C1.58192 6.78645 2.05429 6.28772 2.64179 6.20321C2.75862 6.18657 2.87248 6.18526 2.98295 6.19796C3.08073 6.20934 3.16665 6.13403 3.16665 6.03244V4.81124C3.16665 4.72454 3.10274 4.64923 3.01893 4.64397C2.85047 4.63259 2.67777 4.63653 2.50254 4.65711C1.2069 4.80905 0.161418 5.89364 0.0179291 7.23439C-0.171274 9.00294 1.16203 10.5 2.83354 10.5C4.39838 10.5 5.66692 9.18772 5.66692 7.56892" fill="#1B1B1B"/>
</svg>
