<svg width="50" height="50" viewBox="0 0 50 50" fill="none" xmlns="http://www.w3.org/2000/svg">
<rect width="48.6531" height="48.683" rx="24" transform="matrix(0.999969 0.00787558 0.0136289 0.999907 0.668945 0)" fill="#1B1B1B"/>
<path fill-rule="evenodd" clip-rule="evenodd" d="M14.4205 23.9683C14.1114 23.6609 13.9345 23.2459 13.9286 22.8147C13.9227 22.3834 14.0884 21.9712 14.3892 21.6686L24.0152 11.987C24.3161 11.6845 24.7274 11.5164 25.1586 11.5198C25.5899 11.5232 26.0059 11.6978 26.3151 12.0051L36.2071 21.8404C36.5076 22.1495 36.6771 22.5616 36.6792 22.988C36.6813 23.4144 36.5158 23.821 36.2184 24.1202C35.9209 24.4193 35.5153 24.5872 35.0889 24.5875C34.6625 24.5879 34.2494 24.4207 33.9386 24.122L26.8608 17.0849L27.1177 35.9284C27.1235 36.3598 26.9578 36.7721 26.657 37.0747C26.3561 37.3773 25.9447 37.5454 25.5133 37.542C25.082 37.5386 24.6659 37.364 24.3567 37.0566C24.0475 36.7492 23.8705 36.3341 23.8647 35.9028L23.6078 17.0592L16.7204 23.9864C16.4195 24.2889 16.0082 24.4569 15.5769 24.4535C15.1456 24.4501 14.7297 24.2756 14.4205 23.9683Z" fill="white"/>
</svg>
